<svg xmlns="http://www.w3.org/2000/svg" aria-label="IMDb" role="img" viewBox="0 0 50 50" width="50" height="50"><path width="512" height="512" rx="15%" fill="#f5c518" d="M0.286 0H49.714A0.286 0.286 0 0 1 50 0.286V49.714A0.286 0.286 0 0 1 49.714 50H0.286A0.286 0.286 0 0 1 0 49.714V0.286A0.286 0.286 0 0 1 0.286 0z"/><path d="M10.156 32.031V17.969H6.25v14.063zm8.301 -14.063 -0.879 6.543 -0.488 -3.516 -0.488 -3.027h-4.883v14.063h3.32v-9.277l1.367 9.277h2.441l1.27 -9.473v9.473h3.32V17.969zm6.543 14.063V17.969h6.055c1.465 0 2.539 1.074 2.539 2.441v9.18c0 1.367 -1.074 2.441 -2.539 2.441zm4.59 -11.523 -0.879 -0.098v9.18c0.488 0 0.879 -0.098 0.977 -0.293 0.195 -0.195 0.195 -0.781 0.195 -1.758v-6.641zm11.328 0.977h0.293c1.367 0 2.539 1.074 2.539 2.441v5.664c0 1.367 -1.172 2.441 -2.539 2.441h-0.293c-0.781 0 -1.563 -0.391 -2.051 -1.074l-0.195 0.879h-3.516V17.969h3.711v4.492c0.488 -0.586 1.27 -0.977 2.051 -0.977m-0.781 6.836v-3.32l-0.098 -1.074c-0.098 -0.195 -0.391 -0.293 -0.586 -0.293s-0.488 0.098 -0.586 0.293v5.566c0.098 0.195 0.391 0.293 0.586 0.293s0.586 -0.098 0.586 -0.293z"/></svg>